<svg xmlns="http://www.w3.org/2000/svg" fill="none" viewBox="0 0 24 24" id="Qr-Code-2--Streamline-Rounded-Material" height="24" width="24">
  <desc>
    Qr Code 2 Streamline Icon: https://streamlinehq.com
  </desc>
  <path fill="#000000" d="M13 21v-2h2v2h-2Zm-2 -2V14h2v5h-2Zm8 -3v-4h2v4h-2Zm-2 -4v-2h2v2h-2Zm-12 2v-2h2v2h-2Zm-2 -2v-2h2v2H3Zm9 -7V3h2v2h-2ZM4.25 7.75h3.5v-3.5h-3.5v3.5Zm-1.25 0.5v-4.5c0 -0.2125 0.071915 -0.390665 0.21575 -0.5345C3.359415 3.071835 3.5375 3 3.75 3h4.5c0.2125 0 0.39065 0.071835 0.5345 0.2155 0.14365 0.143835 0.2155 0.322 0.2155 0.5345v4.5c0 0.2125 -0.07185 0.3906 -0.2155 0.53425 -0.14385 0.14385 -0.322 0.21575 -0.5345 0.21575h-4.5c-0.2125 0 -0.390585 -0.0719 -0.53425 -0.21575C3.071915 8.6406 3 8.4625 3 8.25Zm1.25 11.5h3.5v-3.5h-3.5v3.5Zm-1.25 0.5v-4.5c0 -0.2125 0.071915 -0.39065 0.21575 -0.5345C3.359415 15.07185 3.5375 15 3.75 15h4.5c0.2125 0 0.39065 0.07185 0.5345 0.2155 0.14365 0.14385 0.2155 0.322 0.2155 0.5345v4.5c0 0.2125 -0.07185 0.3906 -0.2155 0.53425 -0.14385 0.14385 -0.322 0.21575 -0.5345 0.21575h-4.5c-0.2125 0 -0.390585 -0.0719 -0.53425 -0.21575C3.071915 20.6406 3 20.4625 3 20.25Zm13.25 -12.5h3.5v-3.5h-3.5v3.5Zm-1.25 0.5v-4.5c0 -0.2125 0.0719 -0.390665 0.21575 -0.5345C15.3594 3.071835 15.5375 3 15.75 3h4.5c0.2125 0 0.39065 0.071835 0.5345 0.2155 0.14365 0.143835 0.2155 0.322 0.2155 0.5345v4.5c0 0.2125 -0.07185 0.3906 -0.2155 0.53425 -0.14385 0.14385 -0.322 0.21575 -0.5345 0.21575h-4.5c-0.2125 0 -0.3906 -0.0719 -0.53425 -0.21575C15.0719 8.6406 15 8.4625 15 8.25ZM17 21v-3h-2v-2h4v3h2v2h-4Zm-4 -7v-2h4v2h-4Zm-4 0v-2h-2v-2h6v2h-2v2h-2Zm1 -5v-4h2v2h2v2h-4Zm-4.75 -2.25v-1.5h1.5v1.5h-1.5Zm0 12v-1.5h1.5v1.5h-1.5Zm12 -12v-1.5h1.5v1.5h-1.5Z" stroke-width="0.5"></path>
</svg>